<svg viewBox="0 0 1600 1000" xmlns="http://www.w3.org/2000/svg">
  <rect width="1600" height="1000" fill="#F1F5F4"/>
  <path d="M0 550.0 L 320.0 420.0 L 640.0 580.0 L 992.0 400.0 L 1360.0 550.0 L 1600 480.0 L 1600 1000 L 0 1000 Z" fill="#E7ECEA"/>
  <circle cx="1312.0" cy="220.0" r="70" fill="#F97316" opacity="0.85"/>
  <rect y="600.0" width="1600" height="400.0" fill="#DCEEEA"/>
  <path d="M0 620.0 Q 400.0 602.0 800.0 620.0 T 1600 620.0" stroke="#1F6F78" stroke-width="2" fill="none" opacity="0.50"/><path d="M0 642.0 Q 400.0 624.0 800.0 642.0 T 1600 642.0" stroke="#1F6F78" stroke-width="2" fill="none" opacity="0.43"/><path d="M0 664.0 Q 400.0 646.0 800.0 664.0 T 1600 664.0" stroke="#1F6F78" stroke-width="2" fill="none" opacity="0.36"/><path d="M0 686.0 Q 400.0 668.0 800.0 686.0 T 1600 686.0" stroke="#1F6F78" stroke-width="2" fill="none" opacity="0.29"/><path d="M0 708.0 Q 400.0 690.0 800.0 708.0 T 1600 708.0" stroke="#1F6F78" stroke-width="2" fill="none" opacity="0.22"/><path d="M0 730.0 Q 400.0 712.0 800.0 730.0 T 1600 730.0" stroke="#1F6F78" stroke-width="2" fill="none" opacity="0.15"/>
  <g transform="translate(800.0 660.0)">
      <ellipse cx="0" cy="120" rx="26" ry="8" fill="#000" opacity="0.08"/>
      <rect x="-14" y="20" width="28" height="70" rx="10" fill="#111827"/>
      <circle cx="0" cy="0" r="20" fill="#D9B99B"/>
      <rect x="-30" y="30" width="14" height="60" rx="7" fill="#111827" transform="rotate(18 -23 60)"/>
    </g>
</svg>